<?xml version="1.0" encoding="UTF-8" standalone="no"?>
<svg
   xmlns:dc="http://purl.org/dc/elements/1.1/"
   xmlns:cc="http://creativecommons.org/ns#"
   xmlns:rdf="http://www.w3.org/1999/02/22-rdf-syntax-ns#"
   xmlns:svg="http://www.w3.org/2000/svg"
   xmlns="http://www.w3.org/2000/svg"
   xmlns:xlink="http://www.w3.org/1999/xlink"
   xmlns:sodipodi="http://sodipodi.sourceforge.net/DTD/sodipodi-0.dtd"
   xmlns:inkscape="http://www.inkscape.org/namespaces/inkscape"
   id="graph"
   class="unselectable"
   version="1.1"
   viewBox="-60.23 35.93 731.30273 532.91467"
   sodipodi:docname="wasp-database.svg"
   width="731.30273"
   height="532.91467"
   inkscape:version="0.92.2 (5c3e80d, 2017-08-06)">
  <metadata
     id="metadata1737">
    <rdf:RDF>
      <cc:Work
         rdf:about="">
        <dc:format>image/svg+xml</dc:format>
        <dc:type
           rdf:resource="http://purl.org/dc/dcmitype/StillImage" />
        <dc:title></dc:title>
      </cc:Work>
    </rdf:RDF>
  </metadata>
  <sodipodi:namedview
     pagecolor="#ffffff"
     bordercolor="#666666"
     borderopacity="1"
     objecttolerance="10"
     gridtolerance="10"
     guidetolerance="10"
     inkscape:pageopacity="0"
     inkscape:pageshadow="2"
     inkscape:window-width="1920"
     inkscape:window-height="1001"
     id="namedview1735"
     showgrid="false"
     fit-margin-top="10"
     fit-margin-right="10"
     fit-margin-bottom="10"
     fit-margin-left="10"
     inkscape:zoom="0.88020833"
     inkscape:cx="375.61751"
     inkscape:cy="266.48467"
     inkscape:window-x="-9"
     inkscape:window-y="-9"
     inkscape:window-maximized="1"
     inkscape:current-layer="graph" />
  <defs
     id="graphics">
    <marker
       id="arrowhead"
       viewBox="0 0 10 10"
       refX="0"
       refY="5"
       markerUnits="strokeWidth"
       markerWidth="4"
       markerHeight="3"
       orient="auto"
       style="fill:#ffcccc">
      <path
         d="M 0,0 10,5 0,10 Z"
         id="path1280"
         inkscape:connector-curvature="0" />
    </marker>
    <style
       type="text/css"
       id="style1283">
                .label {
                    font-size:          8pt;
                    font-family:        &quot;Open Sans&quot;, &quot;Verdana&quot;, &quot;Helvetica Neue&quot;, sans-serif;
                    font-weight:        normal;
                    text-anchor:        left;
                    dominant-baseline:  middle;
                    fill:               #000;
                }
                .role {
                    font-style:         italic;
                    stroke:             none;
                    fill:               #000;
                }
                .stop {
                    font-size:          6pt;
                    font-family:        &quot;Consolas&quot;, &quot;Andale Mono&quot;, monospace;
                    text-anchor:        middle;
                    dominant-baseline:  bottom;
                    fill:               #fff;
                }
                .bad {
                    fill:               #e00;
                }
                .end {
                    text-anchor:        end;
                }
            </style>
    <g
       id="knot"
       style="fill:#ffffff;stroke:#ff8888;stroke-width:2px">
      <rect
         width="20"
         height="20"
         rx="5"
         ry="5"
         transform="translate(-10,-10)"
         id="rect1285"
         x="0"
         y="0" />
    </g>
    <g
       id="anchor"
       style="fill:#bb5555">
      <rect
         width="20"
         height="20"
         transform="translate(-10,-10)"
         id="rect1288"
         x="0"
         y="0" />
    </g>
    <g
       id="anchor_imploded"
       style="fill:#663333">
      <path
         d="M 0,0 Q 12,4 24,0 20,12 24,24 12,20 0,24 4,12 0,0"
         transform="translate(-12,-12)"
         id="path1291"
         inkscape:connector-curvature="0" />
    </g>
    <g
       id="tie"
       style="fill:#a8a8a8">
      <rect
         width="20"
         height="20"
         transform="rotate(45,17.071068,-7.0710678)"
         id="rect1294"
         x="0"
         y="0" />
    </g>
    <g
       id="tie_historized">
      <rect
         width="22"
         height="22"
         transform="rotate(45,18.778175,-7.7781746)"
         style="fill:#ffffff;stroke:#a8a8a8;stroke-width:2px"
         id="rect1297"
         x="0"
         y="0" />
      <rect
         width="14"
         height="14"
         transform="rotate(45,11.949747,-4.9497475)"
         style="fill:#a8a8a8"
         id="rect1299"
         x="0"
         y="0" />
    </g>
    <g
       id="attribute"
       style="fill:#ffffff;stroke:#ff8888;stroke-width:2px">
      <circle
         r="10"
         id="circle1302"
         cx="0"
         cy="0" />
    </g>
    <g
       id="attribute_historized"
       style="fill:#ffffff;stroke:#ff8888;stroke-width:2px">
      <circle
         r="12"
         id="circle1305"
         cx="0"
         cy="0" />
      <circle
         r="7"
         id="circle1307"
         cx="0"
         cy="0" />
    </g>
    <g
       id="highlight"
       style="fill:#ffffff;stroke:#ede5e5;stroke-width:10px">
      <circle
         r="30"
         id="circle1310"
         cx="0"
         cy="0" />
    </g>
    <g
       id="selection"
       style="fill:#ede5e5">
      <circle
         r="30"
         id="circle1313"
         cx="0"
         cy="0" />
      <circle
         r="30"
         style="stroke:#000000;stroke-width:1px"
         id="circle1315"
         cx="0"
         cy="0" />
    </g>
    <g
       id="fixation"
       style="fill:#000000">
      <circle
         r="1.5"
         id="circle1318"
         cx="0"
         cy="0" />
    </g>
    <g
       id="bubble"
       style="fill:#f9f8f7;stroke:none">
      <circle
         r="8"
         id="circle1321"
         cx="0"
         cy="0" />
    </g>
    <g
       id="one"
       style="stroke:#554444;stroke-width:1px">
      <line
         x1="0"
         y1="-3"
         x2="0"
         y2="3"
         id="line1324" />
    </g>
    <g
       id="many"
       style="stroke:#554444;stroke-width:1px">
      <line
         x1="-3"
         y1="-3"
         x2="3"
         y2="-3"
         id="line1327" />
      <line
         x1="-3"
         y1="0"
         x2="3"
         y2="0"
         id="line1329" />
      <line
         x1="-3"
         y1="3"
         x2="3"
         y2="3"
         id="line1331" />
    </g>
    <g
       id="stop">
      <rect
         width="24"
         height="11"
         rx="2"
         ry="2"
         transform="translate(-12,-8)"
         style="fill:#708090"
         id="rect1334"
         x="0"
         y="0" />
    </g>
  </defs>
  <!-- layers are appended here -->
  <g
     id="edges"
     style="fill:none;stroke:#000000;stroke-width:1px"
     transform="translate(-392.38249,-108.57)">
    <path
       d="m 595.02,581.7 q 43.38,-13.825 86.76,-27.65"
       id="path1338"
       inkscape:connector-curvature="0" />
    <path
       d="M 754.02,594.47 Q 717.9,574.26 681.78,554.05"
       id="path1340"
       inkscape:connector-curvature="0" />
    <path
       d="m 663.11,639.05 q 9.335,-42.5 18.67,-85"
       id="path1342"
       inkscape:connector-curvature="0" />
    <path
       d="M 712.48,654.36 Q 697.13,604.205 681.78,554.05"
       id="path1344"
       inkscape:connector-curvature="0" />
    <path
       d="m 627.56,605.25 q 27.11,-25.6 54.22,-51.2"
       id="path1346"
       inkscape:connector-curvature="0" />
    <path
       d="m 466.22,347.96 q 44.765,22.28 89.53,44.56"
       id="path1348"
       inkscape:connector-curvature="0" />
    <path
       d="m 462.85,434.58 q 46.45,-21.03 92.9,-42.06"
       id="path1350"
       inkscape:connector-curvature="0" />
    <path
       d="m 442.59,376.35 q 56.58,8.085 113.16,16.17"
       id="path1352"
       inkscape:connector-curvature="0" />
    <path
       d="m 499.85,311.27 q 27.95,40.625 55.9,81.25"
       id="path1354"
       inkscape:connector-curvature="0" />
    <path
       d="m 451.59,406.18 q 52.08,-6.83 104.16,-13.66"
       id="path1356"
       inkscape:connector-curvature="0" />
    <path
       d="m 491.96,472.55 q 31.895,-40.015 63.79,-80.03"
       id="path1358"
       inkscape:connector-curvature="0" />
    <path
       d="M 863.45,438.2 Q 837.325,408.695 811.2,379.19"
       id="path1360"
       inkscape:connector-curvature="0" />
    <path
       d="m 929.06,371.34 q -58.93,3.925 -117.86,7.85"
       id="path1362"
       inkscape:connector-curvature="0" />
    <path
       d="m 892.42,329.28 q -40.61,24.955 -81.22,49.91"
       id="path1364"
       inkscape:connector-curvature="0" />
    <path
       d="M 919.83,410.21 Q 865.515,394.7 811.2,379.19"
       id="path1366"
       inkscape:connector-curvature="0" />
    <path
       d="M 569.17,191.55 Q 592.585,203.575 616,215.6"
       id="path1368"
       inkscape:connector-curvature="0" />
    <path
       d="M 636.26,167.5 Q 626.13,191.55 616,215.6"
       id="path1370"
       inkscape:connector-curvature="0" />
    <path
       d="m 821.06,180.16 q -29.115,25.315 -58.23,50.63"
       id="path1372"
       inkscape:connector-curvature="0" />
    <path
       d="m 823.59,233.32 q -30.38,-1.265 -60.76,-2.53"
       id="path1374"
       inkscape:connector-curvature="0" />
    <path
       d="M 933.71,607.99 Q 919.155,578.245 904.6,548.5"
       id="path1376"
       inkscape:connector-curvature="0" />
    <path
       d="m 972.95,534.57 q -34.175,6.965 -68.35,13.93"
       id="path1378"
       inkscape:connector-curvature="0" />
    <path
       d="m 586.71,489.8 q 47.535,32.125 95.07,64.25"
       id="path1380"
       inkscape:connector-curvature="0" />
    <path
       d="M 586.71,489.8 Q 571.23,441.16 555.75,392.52"
       id="path1382"
       inkscape:connector-curvature="0" />
    <path
       d="m 812.75,512.89 q -0.775,-66.85 -1.55,-133.7"
       id="path1384"
       inkscape:connector-curvature="0" />
    <path
       d="m 812.75,512.89 q -65.485,20.58 -130.97,41.16"
       id="path1386"
       inkscape:connector-curvature="0" />
    <path
       d="m 812.75,512.89 q 45.925,17.805 91.85,35.61"
       id="path1388"
       inkscape:connector-curvature="0" />
    <path
       d="m 654,284.52 q 78.6,47.335 157.2,94.67"
       id="path1390"
       inkscape:connector-curvature="0" />
    <path
       d="M 654,284.52 Q 635,250.06 616,215.6"
       id="path1392"
       inkscape:connector-curvature="0" />
    <path
       d="m 654,284.52 q -49.125,54 -98.25,108"
       id="path1394"
       inkscape:connector-curvature="0" />
    <path
       d="M 737.52,290.28 Q 646.635,341.4 555.75,392.52"
       id="path1396"
       inkscape:connector-curvature="0" />
    <path
       d="m 737.52,290.28 q 36.84,44.455 73.68,88.91"
       id="path1398"
       inkscape:connector-curvature="0" />
    <path
       d="m 737.52,290.28 q 12.655,-29.745 25.31,-59.49"
       id="path1400"
       inkscape:connector-curvature="0" />
  </g>
  <g
     id="nodes"
     transform="translate(-392.38249,-108.57)">
    <g
       transform="translate(681.78,554.05)"
       id="g1407">
      <use
         xlink:href="#anchor"
         id="use1403"
         x="0"
         y="0"
         width="100%"
         height="100%" />
      <use
         xlink:href="#fixation"
         id="use1405"
         x="0"
         y="0"
         width="100%"
         height="100%" />
    </g>
    <g
       transform="translate(555.75,392.52)"
       id="g1413">
      <use
         xlink:href="#anchor"
         id="use1409"
         x="0"
         y="0"
         width="100%"
         height="100%" />
      <use
         xlink:href="#fixation"
         id="use1411"
         x="0"
         y="0"
         width="100%"
         height="100%" />
    </g>
    <g
       transform="translate(811.2,379.19)"
       id="g1419">
      <use
         xlink:href="#anchor"
         id="use1415"
         x="0"
         y="0"
         width="100%"
         height="100%" />
      <use
         xlink:href="#fixation"
         id="use1417"
         x="0"
         y="0"
         width="100%"
         height="100%" />
    </g>
    <g
       transform="translate(616,215.6)"
       id="g1425">
      <use
         xlink:href="#anchor"
         id="use1421"
         x="0"
         y="0"
         width="100%"
         height="100%" />
      <use
         xlink:href="#fixation"
         id="use1423"
         x="0"
         y="0"
         width="100%"
         height="100%" />
    </g>
    <g
       transform="translate(762.83,230.79)"
       id="g1431">
      <use
         xlink:href="#anchor"
         id="use1427"
         x="0"
         y="0"
         width="100%"
         height="100%" />
      <use
         xlink:href="#fixation"
         id="use1429"
         x="0"
         y="0"
         width="100%"
         height="100%" />
    </g>
    <g
       transform="translate(904.6,548.5)"
       id="g1437">
      <use
         xlink:href="#anchor"
         id="use1433"
         x="0"
         y="0"
         width="100%"
         height="100%" />
      <use
         xlink:href="#fixation"
         id="use1435"
         x="0"
         y="0"
         width="100%"
         height="100%" />
    </g>
    <g
       transform="translate(595.02,581.7)"
       id="g1443">
      <use
         xlink:href="#attribute_historized"
         id="use1439"
         x="0"
         y="0"
         width="100%"
         height="100%" />
      <use
         xlink:href="#fixation"
         id="use1441"
         x="0"
         y="0"
         width="100%"
         height="100%" />
    </g>
    <g
       transform="translate(754.02,594.47)"
       id="g1449">
      <use
         xlink:href="#attribute_historized"
         id="use1445"
         x="0"
         y="0"
         width="100%"
         height="100%" />
      <use
         xlink:href="#fixation"
         id="use1447"
         x="0"
         y="0"
         width="100%"
         height="100%" />
    </g>
    <g
       transform="translate(663.11,639.05)"
       id="g1455">
      <use
         xlink:href="#attribute_historized"
         id="use1451"
         x="0"
         y="0"
         width="100%"
         height="100%" />
      <use
         xlink:href="#fixation"
         id="use1453"
         x="0"
         y="0"
         width="100%"
         height="100%" />
    </g>
    <g
       transform="translate(712.48,654.36)"
       id="g1461">
      <use
         xlink:href="#attribute_historized"
         id="use1457"
         x="0"
         y="0"
         width="100%"
         height="100%" />
      <use
         xlink:href="#fixation"
         id="use1459"
         x="0"
         y="0"
         width="100%"
         height="100%" />
    </g>
    <g
       transform="translate(627.56,605.25)"
       id="g1467">
      <use
         xlink:href="#attribute_historized"
         id="use1463"
         x="0"
         y="0"
         width="100%"
         height="100%" />
      <use
         xlink:href="#fixation"
         id="use1465"
         x="0"
         y="0"
         width="100%"
         height="100%" />
    </g>
    <g
       transform="translate(466.22,347.96)"
       id="g1473">
      <use
         xlink:href="#attribute_historized"
         id="use1469"
         x="0"
         y="0"
         width="100%"
         height="100%" />
      <use
         xlink:href="#fixation"
         id="use1471"
         x="0"
         y="0"
         width="100%"
         height="100%" />
    </g>
    <g
       transform="translate(462.85,434.58)"
       id="g1479">
      <use
         xlink:href="#attribute_historized"
         id="use1475"
         x="0"
         y="0"
         width="100%"
         height="100%" />
      <use
         xlink:href="#fixation"
         id="use1477"
         x="0"
         y="0"
         width="100%"
         height="100%" />
    </g>
    <g
       transform="translate(442.59,376.35)"
       id="g1485">
      <use
         xlink:href="#attribute_historized"
         id="use1481"
         x="0"
         y="0"
         width="100%"
         height="100%" />
      <use
         xlink:href="#fixation"
         id="use1483"
         x="0"
         y="0"
         width="100%"
         height="100%" />
    </g>
    <g
       transform="translate(499.85,311.27)"
       id="g1491">
      <use
         xlink:href="#attribute"
         id="use1487"
         x="0"
         y="0"
         width="100%"
         height="100%" />
      <use
         xlink:href="#fixation"
         id="use1489"
         x="0"
         y="0"
         width="100%"
         height="100%" />
    </g>
    <g
       transform="translate(451.59,406.18)"
       id="g1497">
      <use
         xlink:href="#attribute_historized"
         id="use1493"
         x="0"
         y="0"
         width="100%"
         height="100%" />
      <use
         xlink:href="#fixation"
         id="use1495"
         x="0"
         y="0"
         width="100%"
         height="100%" />
    </g>
    <g
       transform="translate(491.96,472.55)"
       id="g1503">
      <use
         xlink:href="#attribute_historized"
         id="use1499"
         x="0"
         y="0"
         width="100%"
         height="100%" />
      <use
         xlink:href="#fixation"
         id="use1501"
         x="0"
         y="0"
         width="100%"
         height="100%" />
    </g>
    <g
       transform="translate(863.45,438.2)"
       id="g1509">
      <use
         xlink:href="#attribute"
         id="use1505"
         x="0"
         y="0"
         width="100%"
         height="100%" />
      <use
         xlink:href="#fixation"
         id="use1507"
         x="0"
         y="0"
         width="100%"
         height="100%" />
    </g>
    <g
       transform="translate(929.06,371.34)"
       id="g1515">
      <use
         xlink:href="#attribute"
         id="use1511"
         x="0"
         y="0"
         width="100%"
         height="100%" />
      <use
         xlink:href="#fixation"
         id="use1513"
         x="0"
         y="0"
         width="100%"
         height="100%" />
    </g>
    <g
       transform="translate(892.42,329.28)"
       id="g1521">
      <use
         xlink:href="#attribute"
         id="use1517"
         x="0"
         y="0"
         width="100%"
         height="100%" />
      <use
         xlink:href="#fixation"
         id="use1519"
         x="0"
         y="0"
         width="100%"
         height="100%" />
    </g>
    <g
       transform="translate(919.83,410.21)"
       id="g1527">
      <use
         xlink:href="#attribute"
         id="use1523"
         x="0"
         y="0"
         width="100%"
         height="100%" />
      <use
         xlink:href="#fixation"
         id="use1525"
         x="0"
         y="0"
         width="100%"
         height="100%" />
    </g>
    <g
       transform="translate(569.17,191.55)"
       id="g1533">
      <use
         xlink:href="#attribute_historized"
         id="use1529"
         x="0"
         y="0"
         width="100%"
         height="100%" />
      <use
         xlink:href="#fixation"
         id="use1531"
         x="0"
         y="0"
         width="100%"
         height="100%" />
    </g>
    <g
       transform="translate(636.26,167.5)"
       id="g1539">
      <use
         xlink:href="#attribute_historized"
         id="use1535"
         x="0"
         y="0"
         width="100%"
         height="100%" />
      <use
         xlink:href="#fixation"
         id="use1537"
         x="0"
         y="0"
         width="100%"
         height="100%" />
    </g>
    <g
       transform="translate(821.06,180.16)"
       id="g1545">
      <use
         xlink:href="#attribute_historized"
         id="use1541"
         x="0"
         y="0"
         width="100%"
         height="100%" />
      <use
         xlink:href="#fixation"
         id="use1543"
         x="0"
         y="0"
         width="100%"
         height="100%" />
    </g>
    <g
       transform="translate(823.59,233.32)"
       id="g1551">
      <use
         xlink:href="#attribute_historized"
         id="use1547"
         x="0"
         y="0"
         width="100%"
         height="100%" />
      <use
         xlink:href="#fixation"
         id="use1549"
         x="0"
         y="0"
         width="100%"
         height="100%" />
    </g>
    <g
       transform="translate(933.71,607.99)"
       id="g1557">
      <use
         xlink:href="#attribute_historized"
         id="use1553"
         x="0"
         y="0"
         width="100%"
         height="100%" />
      <use
         xlink:href="#fixation"
         id="use1555"
         x="0"
         y="0"
         width="100%"
         height="100%" />
    </g>
    <g
       transform="translate(972.95,534.57)"
       id="g1563">
      <use
         xlink:href="#attribute_historized"
         id="use1559"
         x="0"
         y="0"
         width="100%"
         height="100%" />
      <use
         xlink:href="#fixation"
         id="use1561"
         x="0"
         y="0"
         width="100%"
         height="100%" />
    </g>
    <g
       transform="translate(586.71,489.8)"
       id="g1569">
      <use
         xlink:href="#tie"
         id="use1565"
         x="0"
         y="0"
         width="100%"
         height="100%" />
      <use
         xlink:href="#fixation"
         id="use1567"
         x="0"
         y="0"
         width="100%"
         height="100%" />
    </g>
    <g
       transform="translate(634.245,521.925)"
       id="g1575">
      <use
         xlink:href="#bubble"
         id="use1571"
         x="0"
         y="0"
         width="100%"
         height="100%" />
      <use
         xlink:href="#one"
         id="use1573"
         x="0"
         y="0"
         width="100%"
         height="100%" />
    </g>
    <g
       transform="translate(571.23,441.16)"
       id="g1581">
      <use
         xlink:href="#bubble"
         id="use1577"
         x="0"
         y="0"
         width="100%"
         height="100%" />
      <use
         xlink:href="#many"
         id="use1579"
         x="0"
         y="0"
         width="100%"
         height="100%" />
    </g>
    <g
       transform="translate(812.75,512.89)"
       id="g1587">
      <use
         xlink:href="#tie"
         id="use1583"
         x="0"
         y="0"
         width="100%"
         height="100%" />
      <use
         xlink:href="#fixation"
         id="use1585"
         x="0"
         y="0"
         width="100%"
         height="100%" />
    </g>
    <g
       transform="translate(811.975,446.04)"
       id="g1593">
      <use
         xlink:href="#bubble"
         id="use1589"
         x="0"
         y="0"
         width="100%"
         height="100%" />
      <use
         xlink:href="#many"
         id="use1591"
         x="0"
         y="0"
         width="100%"
         height="100%" />
    </g>
    <g
       transform="translate(747.265,533.47)"
       id="g1599">
      <use
         xlink:href="#bubble"
         id="use1595"
         x="0"
         y="0"
         width="100%"
         height="100%" />
      <use
         xlink:href="#many"
         id="use1597"
         x="0"
         y="0"
         width="100%"
         height="100%" />
    </g>
    <g
       transform="translate(858.675,530.695)"
       id="g1605">
      <use
         xlink:href="#bubble"
         id="use1601"
         x="0"
         y="0"
         width="100%"
         height="100%" />
      <use
         xlink:href="#one"
         id="use1603"
         x="0"
         y="0"
         width="100%"
         height="100%" />
    </g>
    <g
       transform="translate(654,284.52)"
       id="g1611">
      <use
         xlink:href="#tie"
         id="use1607"
         x="0"
         y="0"
         width="100%"
         height="100%" />
      <use
         xlink:href="#fixation"
         id="use1609"
         x="0"
         y="0"
         width="100%"
         height="100%" />
    </g>
    <g
       transform="translate(732.6,331.855)"
       id="g1617">
      <use
         xlink:href="#bubble"
         id="use1613"
         x="0"
         y="0"
         width="100%"
         height="100%" />
      <use
         xlink:href="#many"
         id="use1615"
         x="0"
         y="0"
         width="100%"
         height="100%" />
    </g>
    <g
       transform="translate(635,250.06)"
       id="g1623">
      <use
         xlink:href="#bubble"
         id="use1619"
         x="0"
         y="0"
         width="100%"
         height="100%" />
      <use
         xlink:href="#one"
         id="use1621"
         x="0"
         y="0"
         width="100%"
         height="100%" />
    </g>
    <g
       transform="translate(604.875,338.52)"
       id="g1629">
      <use
         xlink:href="#bubble"
         id="use1625"
         x="0"
         y="0"
         width="100%"
         height="100%" />
      <use
         xlink:href="#many"
         id="use1627"
         x="0"
         y="0"
         width="100%"
         height="100%" />
    </g>
    <g
       transform="translate(737.52,290.28)"
       id="g1635">
      <use
         xlink:href="#tie"
         id="use1631"
         x="0"
         y="0"
         width="100%"
         height="100%" />
      <use
         xlink:href="#fixation"
         id="use1633"
         x="0"
         y="0"
         width="100%"
         height="100%" />
    </g>
    <g
       transform="translate(646.635,341.4)"
       id="g1641">
      <use
         xlink:href="#bubble"
         id="use1637"
         x="0"
         y="0"
         width="100%"
         height="100%" />
      <use
         xlink:href="#many"
         id="use1639"
         x="0"
         y="0"
         width="100%"
         height="100%" />
    </g>
    <g
       transform="translate(774.36,334.735)"
       id="g1647">
      <use
         xlink:href="#bubble"
         id="use1643"
         x="0"
         y="0"
         width="100%"
         height="100%" />
      <use
         xlink:href="#many"
         id="use1645"
         x="0"
         y="0"
         width="100%"
         height="100%" />
    </g>
    <g
       transform="translate(750.175,260.535)"
       id="g1653">
      <use
         xlink:href="#bubble"
         id="use1649"
         x="0"
         y="0"
         width="100%"
         height="100%" />
      <use
         xlink:href="#one"
         id="use1651"
         x="0"
         y="0"
         width="100%"
         height="100%" />
    </g>
  </g>
  <g
     id="keys"
     transform="translate(-392.38249,-108.57)" />
  <g
     id="names"
     class="label"
     style="font-weight:normal;font-size:10.66666698px;font-family:'Open Sans', Verdana, 'Helvetica Neue', sans-serif;dominant-baseline:middle;fill:#000000"
     transform="translate(-392.38249,-108.57)">
    <text
       x="697.78003"
       y="559.04999"
       id="text1657">Podcast</text>
    <text
       x="795.20001"
       y="384.19"
       class="end"
       id="text1659"
       style="text-anchor:end">User</text>
    <text
       x="600"
       y="220.60001"
       class="end"
       id="text1661"
       style="text-anchor:end">EpisodeState</text>
    <text
       x="746.83002"
       y="235.78999"
       class="end"
       id="text1663"
       style="text-anchor:end">PlaylistItem</text>
    <text
       x="888.59998"
       y="553.5"
       class="end"
       id="text1665"
       style="text-anchor:end">Subscription</text>
    <text
       x="578.02002"
       y="589.70001"
       class="end"
       id="text1667"
       style="text-anchor:end">Title (ra)</text>
    <text
       x="771.02002"
       y="602.46997"
       id="text1669">Description (ra)</text>
    <text
       x="646.10999"
       y="647.04999"
       class="end"
       id="text1671"
       style="text-anchor:end">FeedUrl (ra)</text>
    <text
       x="729.47998"
       y="662.35999"
       id="text1673">Website (ra)</text>
    <text
       x="610.56"
       y="613.25"
       class="end"
       id="text1675"
       style="text-anchor:end">LogoUrl (ra)</text>
    <text
       x="449.22"
       y="355.95999"
       class="end"
       id="text1677"
       style="text-anchor:end">Title (ra)</text>
    <text
       x="445.85001"
       y="442.57999"
       class="end"
       id="text1679"
       style="text-anchor:end">MediaUrl (ra)</text>
    <text
       x="425.59"
       y="384.35001"
       class="end"
       id="text1681"
       style="text-anchor:end">Description (ra)</text>
    <text
       x="484.85001"
       y="318.26999"
       class="end"
       id="text1683"
       style="text-anchor:end">Released</text>
    <text
       x="434.59"
       y="414.17999"
       class="end"
       id="text1685"
       style="text-anchor:end">LogoUrl (ra)</text>
    <text
       x="474.95999"
       y="480.54999"
       class="end"
       id="text1687"
       style="text-anchor:end">Expired (ra)</text>
    <text
       x="878.45001"
       y="445.20001"
       id="text1689">MicrosoftAccount</text>
    <text
       x="944.06"
       y="378.34"
       id="text1691">FacebookAccount</text>
    <text
       x="907.41998"
       y="336.28"
       id="text1693">GoogleAccount</text>
    <text
       x="934.83002"
       y="417.20999"
       id="text1695">TwitterAccount</text>
    <text
       x="552.16998"
       y="199.55"
       class="end"
       id="text1697"
       style="text-anchor:end">Playhead (ra)</text>
    <text
       x="653.26001"
       y="175.5"
       id="text1699">PlayedStatus (ra)</text>
    <text
       x="838.06"
       y="188.16"
       id="text1701">Index (ra)</text>
    <text
       x="840.59003"
       y="241.32001"
       id="text1703">Expired (ra)</text>
    <text
       x="950.71002"
       y="615.98999"
       id="text1705">Category (ra)</text>
    <text
       x="989.95001"
       y="542.57001"
       id="text1707">Expired (ra)</text>
    <text
       x="644.245"
       y="527.92499"
       class="role"
       id="text1709"
       style="font-style:italic;fill:#000000;stroke:none">of</text>
    <text
       x="581.22998"
       y="447.16"
       class="role"
       id="text1711"
       style="font-style:italic;fill:#000000;stroke:none">isEpisode</text>
    <text
       x="821.97498"
       y="452.04001"
       class="role"
       id="text1713"
       style="font-style:italic;fill:#000000;stroke:none">subscribes</text>
    <text
       x="757.26501"
       y="539.46997"
       class="role"
       id="text1715"
       style="font-style:italic;fill:#000000;stroke:none">to</text>
    <text
       x="868.67499"
       y="536.69501"
       class="role"
       id="text1717"
       style="font-style:italic;fill:#000000;stroke:none">with</text>
    <text
       x="742.59998"
       y="337.85501"
       class="role"
       id="text1719"
       style="font-style:italic;fill:#000000;stroke:none">listens</text>
    <text
       x="645"
       y="256.06"
       class="role"
       id="text1721"
       style="font-style:italic;fill:#000000;stroke:none">withState</text>
    <text
       x="614.875"
       y="344.51999"
       class="role"
       id="text1723"
       style="font-style:italic;fill:#000000;stroke:none">to</text>
    <text
       x="656.63501"
       y="347.39999"
       class="role"
       id="text1725"
       style="font-style:italic;fill:#000000;stroke:none">item</text>
    <text
       x="784.35999"
       y="340.73499"
       class="role"
       id="text1727"
       style="font-style:italic;fill:#000000;stroke:none">queues</text>
    <text
       x="760.17499"
       y="266.535"
       class="role"
       id="text1729"
       style="font-style:italic;fill:#000000;stroke:none">as</text>
    <text
       x="571.75"
       y="397.51999"
       id="text1731">Episode</text>
  </g>
</svg>
